<svg width="34" height="36" viewBox="0 0 34 36" fill="none" xmlns="http://www.w3.org/2000/svg">
<path d="M30.4343 14.2664C32.6458 14.2664 32.8475 18 30.4127 18H29.6347V21.1148H27.7186V14.2664H30.4343V14.2664ZM34 24.7922C30.9674 31.2539 25.2407 35.4375 17.8644 35.4375C7.99576 35.4375 0 27.6328 0 18C0 8.36719 7.99576 0.5625 17.8644 0.5625C24.8805 0.5625 30.3119 4.33828 33.5822 10.2937L20.1839 17.9437L34 24.7922ZM31.2267 25.6711L26.8831 23.5125C24.9309 26.6273 21.8119 28.5328 18.0661 28.5328C12.1233 28.5328 7.31864 23.843 7.31864 18.0633C7.31864 12.2625 12.1233 7.57266 18.0661 7.57266C21.5525 7.57266 24.4699 9.225 26.4869 12.0305L30.7729 9.59766C27.8411 5.19609 23.2309 2.56641 17.8644 2.56641C9.1339 2.56641 2.05297 9.47813 2.05297 18C2.05297 26.5219 9.1339 33.4336 17.8644 33.4336C23.5263 33.4336 28.4174 30.4734 31.2267 25.6711Z" fill="#348B86"/>
</svg>
